<svg width="197" height="78" viewBox="0 0 197 78" fill="none" xmlns="http://www.w3.org/2000/svg">
<path fill-rule="evenodd" clip-rule="evenodd" d="M172.969 76.4444C177.236 75.4073 181.131 73.7346 184.673 71.4094C188.214 69.1011 191.148 66.1403 193.492 62.5439C195.82 58.9475 197 54.682 197 49.7307C197 45.2645 196.123 40.9488 194.352 36.8004C192.582 32.652 189.968 28.972 186.511 25.777C183.054 22.5821 178.872 20.0228 173.964 18.1159C169.057 16.1922 163.458 15.2387 157.185 15.2387C149.293 15.2387 142.059 16.3929 135.465 18.718C128.871 21.0264 122.547 23.9537 116.51 27.4665C110.473 30.9792 104.638 34.8098 99.0059 38.9582C93.3735 43.1066 87.7073 46.9372 81.9906 50.45C76.2738 53.9627 70.4053 56.8733 64.3682 59.1984C58.331 61.5068 51.9397 62.6777 45.1775 62.6777C40.8267 62.6777 36.1217 61.9919 31.0627 60.637C25.9867 59.2821 21.2818 57.3584 16.9479 54.8827C12.5971 52.4071 8.98827 49.2958 6.08774 45.5488C3.18721 41.8019 1.73695 37.5197 1.73695 32.7356C1.73695 29.8585 2.1754 27.2323 3.06917 24.8403C3.94607 22.4483 5.12652 20.1231 6.57679 17.8984C8.17882 20.4577 10.2362 22.8497 12.732 25.0745C15.2278 27.3159 17.8754 29.1894 20.6916 30.6949C23.5078 32.2171 26.4083 33.4047 29.3763 34.2913C32.3612 35.1611 35.2111 35.6127 37.943 35.6127C43.7441 35.6127 48.9212 34.3749 53.508 31.8993C58.0949 29.4236 60.3884 25.0745 60.3884 18.8519C60.3884 15.9747 59.6295 13.4991 58.0949 11.4249C56.5604 9.35068 54.5199 7.71139 51.9397 6.52374C49.3596 5.31937 46.4254 4.44954 43.1201 3.89753C39.8148 3.34553 36.4084 3.06116 32.8671 3.06116C27.8755 3.06116 23.0862 3.98117 18.4993 5.82119C13.9124 7.66121 10.0169 10.4045 6.79601 14.0845C5.14338 10.8729 4.3508 7.5943 4.3508 4.24881C4.3508 3.12807 4.41825 2.04079 4.5363 1.02042C4.60375 0.468412 4.14843 -0.0166839 3.59194 0.016771H3.57507C3.13662 0.0334984 2.76562 0.35132 2.69817 0.769505C2.51267 1.89024 2.42835 3.04444 2.42835 4.24881C2.42835 8.07939 3.47389 11.8263 5.56497 15.5064C1.85499 20.1231 0 25.8774 0 32.7356C0 37.5197 1.28163 41.8688 3.86175 45.783C6.44188 49.6972 9.86518 53.0427 14.1148 55.8362C18.3813 58.6297 23.2548 60.7875 28.7186 62.3097C34.1993 63.8319 39.7474 64.5846 45.3798 64.5846C53.272 64.5846 60.5907 63.4305 67.353 61.1053C74.1153 58.797 80.4729 55.8697 86.4257 52.3569C92.3785 48.8441 98.129 45.0972 103.694 41.0993C109.242 37.1015 114.841 33.3545 120.473 29.8418C126.106 26.329 131.94 23.4184 137.978 21.0933C144.015 18.7849 150.49 17.614 157.404 17.614C163.205 17.614 168.433 18.534 173.104 20.3741C177.776 22.2141 181.755 24.6395 185.061 27.6839C188.366 30.7116 190.895 34.1575 192.666 37.988C194.437 41.8186 195.314 45.8165 195.314 49.9649C195.314 53.4776 194.47 56.8231 192.784 60.0181C191.098 63.213 188.72 65.973 185.668 68.2814C182.615 70.5898 178.99 72.4298 174.808 73.7847C170.625 75.1397 166.039 75.8255 161.047 75.8255C158.146 75.8255 155.01 75.424 151.637 74.6211C148.264 73.8182 145.111 72.5804 142.227 70.9076C139.327 69.2349 136.915 67.0436 134.993 64.317C133.053 61.6072 132.092 58.2449 132.092 54.2638C132.092 48.8441 134.74 44.6121 140.052 41.5677C145.364 38.54 152.042 37.0178 160.086 37.0178C161.688 37.0178 163.391 37.3022 165.162 37.8542C166.932 38.4062 168.585 39.2091 170.103 40.2462C171.637 41.2833 172.885 42.4877 173.846 43.8426C174.808 45.1976 175.297 46.6696 175.297 48.2754C175.297 49.8645 174.892 51.3031 174.082 52.5911C173.273 53.8624 172.278 54.866 171.064 55.5853C169.85 56.3046 168.534 56.8566 167.084 57.258C165.634 57.6595 164.352 57.8602 163.222 57.8602C160.49 57.8602 158.433 57.626 157.067 57.1409C155.701 56.6558 154.369 55.786 153.087 54.5147C152.278 54.3475 151.671 54.4813 151.283 54.866C150.878 55.2675 150.929 55.8697 151.401 56.6558C153.34 57.9271 155.263 58.8137 157.202 59.2821C159.141 59.7671 161.064 60.0013 163.003 60.0013C166.224 60.0013 169.361 59.0813 172.413 57.2413C175.465 55.4013 177 52.4071 177 48.2587C177 43.4746 175.195 39.8448 171.57 37.3691C167.944 34.8935 164.133 33.6556 160.103 33.6556C151.418 33.6556 144.167 35.412 138.382 38.9248C132.581 42.4375 129.698 47.5394 129.698 54.2471C129.698 61.4232 132.632 67.1774 138.517 71.4931C144.386 75.8088 151.924 77.9666 161.098 77.9666C164.723 78 168.703 77.4815 172.969 76.4444ZM19.6798 8.19648C24.2667 6.35647 28.6512 5.43646 32.8333 5.43646C40.2364 5.43646 46.1893 6.5572 50.6918 8.78194C55.1944 11.0234 57.4541 14.3689 57.4541 18.8351C57.4541 21.3944 56.847 23.4686 55.6497 25.0577C54.4355 26.6468 52.8672 27.8847 50.9448 28.7712C49.0055 29.6411 46.8807 30.2098 44.5535 30.444C42.2263 30.6782 39.9329 30.7952 37.6732 30.7952C32.5298 30.7952 27.0491 29.5909 21.2649 27.1988C15.4639 24.8068 11.0456 21.1268 7.99332 16.1755C11.1805 12.6962 15.0929 10.0365 19.6798 8.19648Z" fill="white"/>
</svg>
