<svg width="197" height="78" viewBox="0 0 197 78" fill="none" xmlns="http://www.w3.org/2000/svg">
<path fill-rule="evenodd" clip-rule="evenodd" d="M24.0306 76.4444C19.7641 75.4073 15.8686 73.7346 12.3273 71.4094C8.7859 69.1011 5.85164 66.1403 3.5076 62.5439C1.18044 58.9475 0 54.682 0 49.7307C0 45.2645 0.876892 40.9488 2.64757 36.8004C4.41824 32.652 7.03209 28.972 10.4891 25.777C13.9462 22.5821 18.1283 20.0228 23.0356 18.1159C27.9429 16.1922 33.5416 15.2387 39.8148 15.2387C47.707 15.2387 54.9414 16.3929 61.5351 18.718C68.1287 21.0264 74.4526 23.9537 80.4897 27.4665C86.5269 30.9792 92.3617 34.8098 97.9941 38.9582C103.627 43.1066 109.293 46.9372 115.009 50.45C120.726 53.9627 126.595 56.8733 132.632 59.1984C138.669 61.5068 145.06 62.6777 151.823 62.6777C156.173 62.6777 160.878 61.9919 165.937 60.637C171.013 59.2821 175.718 57.3584 180.052 54.8827C184.403 52.4071 188.012 49.2958 190.912 45.5488C193.813 41.8019 195.263 37.5197 195.263 32.7356C195.263 29.8585 194.825 27.2323 193.931 24.8403C193.054 22.4483 191.873 20.1231 190.423 17.8984C188.821 20.4577 186.764 22.8497 184.268 25.0745C181.772 27.3159 179.125 29.1894 176.308 30.6949C173.492 32.2171 170.592 33.4047 167.624 34.2913C164.639 35.1611 161.789 35.6127 159.057 35.6127C153.256 35.6127 148.079 34.3749 143.492 31.8993C138.905 29.4236 136.612 25.0745 136.612 18.8519C136.612 15.9747 137.37 13.4991 138.905 11.4249C140.44 9.35068 142.48 7.71139 145.06 6.52374C147.64 5.31937 150.575 4.44954 153.88 3.89753C157.185 3.34553 160.592 3.06116 164.133 3.06116C169.125 3.06116 173.914 3.98117 178.501 5.82119C183.088 7.66121 186.983 10.4045 190.204 14.0845C191.857 10.8729 192.649 7.5943 192.649 4.24881C192.649 3.12807 192.582 2.04079 192.464 1.02042C192.396 0.468412 192.852 -0.0166839 193.408 0.016771H193.425C193.863 0.0334984 194.234 0.35132 194.302 0.769505C194.487 1.89024 194.572 3.04444 194.572 4.24881C194.572 8.07939 193.526 11.8263 191.435 15.5064C195.145 20.1231 197 25.8774 197 32.7356C197 37.5197 195.718 41.8688 193.138 45.783C190.558 49.6972 187.135 53.0427 182.885 55.8362C178.619 58.6297 173.745 60.7875 168.281 62.3097C162.801 63.8319 157.253 64.5846 151.62 64.5846C143.728 64.5846 136.409 63.4305 129.647 61.1053C122.885 58.797 116.527 55.8697 110.574 52.3569C104.621 48.8441 98.871 45.0972 93.306 41.0993C87.7579 37.1015 82.1592 33.3545 76.5268 29.8418C70.8944 26.329 65.0596 23.4184 59.0224 21.0933C52.9853 18.7849 46.5097 17.614 39.5956 17.614C33.7945 17.614 28.5668 18.534 23.8956 20.3741C19.2244 22.2141 15.2446 24.6395 11.9394 27.6839C8.63412 30.7116 6.1046 34.1575 4.33392 37.988C2.56325 41.8186 1.68636 45.8165 1.68636 49.9649C1.68636 53.4776 2.52953 56.8231 4.21588 60.0181C5.90224 63.213 8.28 65.973 11.3323 68.2814C14.3846 70.5898 18.0103 72.4298 22.1924 73.7847C26.3746 75.1397 30.9615 75.8255 35.9531 75.8255C38.8536 75.8255 41.9902 75.424 45.3629 74.6211C48.7357 73.8182 51.8891 72.5804 54.7728 70.9076C57.6733 69.2349 60.0848 67.0436 62.0073 64.317C63.9466 61.6072 64.9078 58.2449 64.9078 54.2638C64.9078 48.8441 62.2602 44.6121 56.9482 41.5677C51.6362 38.54 44.9582 37.0178 36.9143 37.0178C35.3123 37.0178 33.609 37.3022 31.8384 37.8542C30.0677 38.4062 28.4151 39.2091 26.8974 40.2462C25.3628 41.2833 24.1149 42.4877 23.1536 43.8426C22.1924 45.1976 21.7034 46.6696 21.7034 48.2754C21.7034 49.8645 22.1081 51.3031 22.9175 52.5911C23.727 53.8624 24.722 54.866 25.9361 55.5853C27.1503 56.3046 28.4657 56.8566 29.9159 57.258C31.3662 57.6595 32.6478 57.8602 33.7777 57.8602C36.5096 57.8602 38.5669 57.626 39.9329 57.1409C41.2988 56.6558 42.631 55.786 43.9127 54.5147C44.7221 54.3475 45.3292 54.4813 45.7171 54.866C46.1218 55.2675 46.0712 55.8697 45.599 56.6558C43.6597 57.9271 41.7373 58.8137 39.798 59.2821C37.8587 59.7671 35.9362 60.0013 33.9969 60.0013C30.776 60.0013 27.6393 59.0813 24.587 57.2413C21.5347 55.4013 20.0002 52.4071 20.0002 48.2587C20.0002 43.4746 21.8046 39.8448 25.4302 37.3691C29.0559 34.8935 32.8671 33.6556 36.8974 33.6556C45.5822 33.6556 52.8335 35.412 58.6177 38.9248C64.4188 42.4375 67.3024 47.5394 67.3024 54.2471C67.3024 61.4232 64.3682 67.1774 58.4828 71.4931C52.6143 75.8088 45.0763 77.9666 35.9025 77.9666C32.2768 78 28.297 77.4815 24.0306 76.4444ZM177.32 8.19648C172.733 6.35647 168.349 5.43646 164.167 5.43646C156.764 5.43646 150.811 6.5572 146.308 8.78194C141.806 11.0234 139.546 14.3689 139.546 18.8351C139.546 21.3944 140.153 23.4686 141.35 25.0577C142.564 26.6468 144.133 27.8847 146.055 28.7712C147.995 29.6411 150.119 30.2098 152.446 30.444C154.774 30.6782 157.067 30.7952 159.327 30.7952C164.47 30.7952 169.951 29.5909 175.735 27.1988C181.536 24.8068 185.954 21.1268 189.007 16.1755C185.819 12.6962 181.907 10.0365 177.32 8.19648Z" fill="white"/>
</svg>
