<svg width="85" height="50" viewBox="0 0 85 50" fill="none" xmlns="http://www.w3.org/2000/svg">
<path d="M8.9438 0.00396177C9.9139 -0.0289581 10.8799 0.143586 11.7777 0.510128C12.4812 0.824755 13.1443 1.22163 13.7531 1.69234C14.1021 1.95235 14.3674 1.98009 14.5489 1.78248C14.7303 1.58486 14.8595 1.1099 14.9293 0.367985H15.5296C15.4947 1.02669 15.4679 1.83564 15.4493 2.79481C15.4307 3.75398 15.4225 5.009 15.4249 6.55985H14.8246C14.7199 5.78096 14.6035 5.12803 14.4756 4.60106C14.3756 4.11855 14.2038 3.65352 13.966 3.22124C13.7256 2.81346 13.4217 2.44604 13.0656 2.13263C12.6045 1.61961 12.0265 1.22374 11.3799 0.978158C10.7258 0.725198 10.0296 0.596996 9.3277 0.600267C8.49077 0.586792 7.67101 0.836789 6.98586 1.31445C6.28308 1.82627 5.7096 2.49326 5.31063 3.26284C4.83903 4.16447 4.50498 5.13074 4.31945 6.12996C4.09568 7.27207 3.98579 8.43332 3.99138 9.59685C3.98237 10.7788 4.09936 11.9583 4.34039 13.1157C4.54191 14.1063 4.89501 15.0604 5.38741 15.9447C5.80307 16.6996 6.39416 17.345 7.11151 17.8273C7.82049 18.2911 8.65338 18.5326 9.50221 18.5206C10.1794 18.5201 10.8513 18.4028 11.4881 18.1739C12.1347 17.9549 12.7115 17.5698 13.1598 17.0576C13.7163 16.5526 14.1169 15.901 14.315 15.1785C14.5647 14.2378 14.7317 13.2774 14.8141 12.308H15.4144C15.4144 13.9339 15.4144 15.2479 15.4388 16.2429C15.4633 17.2379 15.4842 18.0699 15.5191 18.746H14.9293C14.8595 18.0041 14.7408 17.536 14.5803 17.3592C14.4197 17.1824 14.1405 17.1928 13.7601 17.4355C13.112 17.8881 12.4253 18.2837 11.7079 18.6177C10.8253 18.986 9.87253 19.1587 8.91588 19.1239C7.28601 19.1599 5.67462 18.7752 4.23918 18.0075C2.89404 17.2684 1.80065 16.1485 1.09811 14.7903C0.323344 13.2108 -0.0516375 11.4673 0.0057159 9.71126C-0.0340349 7.94837 0.360124 6.20251 1.15395 4.62533C1.87241 3.22394 2.96667 2.04697 4.31596 1.22431C5.71332 0.395594 7.31665 -0.0271986 8.9438 0.00396177Z" fill="white"/>
<path d="M30.396 5.0415V15.9518C30.3507 16.5557 30.488 17.1594 30.7904 17.6853C31.0486 18.0597 31.5128 18.2434 32.1864 18.2434V18.7912C31.6489 18.7392 31.108 18.7115 30.567 18.7115C29.9213 18.7115 29.3071 18.7392 28.7242 18.7912C28.1812 18.8353 27.6437 18.9305 27.1188 19.0755V16.4614C26.7673 17.3201 26.1372 18.0376 25.3284 18.5C24.5786 18.904 23.7384 19.1138 22.8853 19.1102C22.3019 19.1268 21.7205 19.0339 21.1717 18.8363C20.7244 18.6828 20.3266 18.4131 20.0197 18.0553C19.7128 17.6974 19.508 17.2643 19.4267 16.8012C19.2913 16.1163 19.2304 15.4189 19.2452 14.7211V8.15477C19.2899 7.55256 19.1578 6.9504 18.8648 6.42133C18.6135 6.05037 18.1458 5.86316 17.4688 5.86316V5.32579C18.0272 5.37779 18.5646 5.40206 19.0881 5.40206C19.7036 5.40471 20.3187 5.37462 20.9309 5.31192C21.4719 5.26028 22.0084 5.16991 22.5363 5.0415V15.6329C22.5329 16.0507 22.5726 16.4677 22.655 16.8775C22.7087 17.2424 22.9045 17.5717 23.2001 17.7948C23.4958 18.0178 23.8677 18.1167 24.236 18.0701C24.761 18.0754 25.2738 17.9125 25.6983 17.6055C26.1535 17.2798 26.5145 16.841 26.7454 16.3332C27.0064 15.7632 27.1364 15.1426 27.1258 14.5165V8.15477C27.1705 7.55256 27.0384 6.9504 26.7454 6.42133C26.4941 6.05037 26.0264 5.86316 25.3493 5.86316V5.32579C25.9043 5.37779 26.4452 5.40206 26.9687 5.40206C27.5842 5.40454 28.1993 5.37445 28.8115 5.31192C29.3454 5.25902 29.8749 5.16866 30.396 5.0415Z" fill="white"/>
<path d="M39.9653 4.96161C41.4963 4.96161 42.698 5.42386 43.5705 6.34837C44.443 7.27287 44.8781 8.73474 44.8758 10.734H36.0704L36.0424 10.2417H41.8464C41.8855 9.45592 41.8328 8.66831 41.6894 7.8946C41.5919 7.27676 41.3648 6.68618 41.0228 6.16115C40.8967 5.9608 40.7212 5.79577 40.5129 5.6817C40.3047 5.56763 40.0705 5.50832 39.8327 5.50938C39.1695 5.50938 38.5972 5.89767 38.1086 6.66732C37.6199 7.43697 37.3163 8.69545 37.1942 10.4428L37.2989 10.5988C37.2631 10.84 37.2409 11.0831 37.2325 11.3268C37.2325 11.5868 37.2325 11.8434 37.2325 12.1034C37.1986 13.1157 37.3769 14.1239 37.7561 15.0641C38.033 15.754 38.5059 16.349 39.1172 16.7768C39.6247 17.1238 40.2251 17.3122 40.8413 17.3176C41.2573 17.316 41.671 17.2553 42.0698 17.1373C42.5226 16.9918 42.9407 16.7559 43.2983 16.444C43.7478 16.0539 44.1195 15.5835 44.3942 15.0572L44.8898 15.2652C44.6752 15.9145 44.3532 16.5238 43.937 17.068C43.4818 17.6753 42.8981 18.1759 42.2268 18.5345C41.4744 18.9275 40.6338 19.1243 39.7838 19.1065C38.6855 19.1294 37.601 18.8601 36.6427 18.3265C35.716 17.7842 34.9781 16.9738 34.5277 16.0037C33.9897 14.8187 33.7307 13.5275 33.7704 12.2282C33.7257 10.8626 33.9955 9.50494 34.5591 8.25862C35.0387 7.24384 35.8066 6.3906 36.7684 5.80406C37.7357 5.23651 38.8419 4.94501 39.9653 4.96161Z" fill="white"/>
<path d="M55.8466 4.96157C56.4483 4.94052 57.0483 5.03711 57.6125 5.24585C58.0196 5.41239 58.3878 5.66019 58.6945 5.9739C59.0251 6.33262 59.255 6.77141 59.3611 7.24625C59.5098 7.93757 59.5754 8.64397 59.5565 9.35065V16.333C59.5565 17.0576 59.6926 17.5533 59.9614 17.8133C60.3545 18.1094 60.8453 18.248 61.3365 18.2016V18.7459L59.8846 18.6801C59.2319 18.6558 58.6002 18.6419 57.9895 18.6419C57.3787 18.6419 56.7191 18.6419 56.1083 18.6801L54.7507 18.7459V18.2016C54.9632 18.2234 55.178 18.2 55.3808 18.1331C55.5836 18.0661 55.7697 17.9572 55.9268 17.8133C56.1502 17.5533 56.2758 17.0576 56.2758 16.333V8.4666C56.2801 8.04345 56.2356 7.62121 56.1432 7.20811C56.0732 6.86438 55.8903 6.55345 55.6232 6.32406C55.2979 6.08978 54.9004 5.97574 54.4994 6.00164C53.9534 5.99319 53.4185 6.15573 52.9707 6.4662C52.5127 6.79468 52.1512 7.23872 51.9237 7.75242C51.6658 8.32817 51.5372 8.95282 51.5468 9.58293V16.333C51.5468 17.0576 51.6585 17.5533 51.8958 17.8133C52.0508 17.955 52.234 18.0628 52.4336 18.1297C52.6333 18.1966 52.8448 18.2211 53.0545 18.2016V18.7459L51.7213 18.6801C51.128 18.6558 50.5277 18.6419 49.9169 18.6419C49.3062 18.6419 48.6186 18.6419 47.959 18.6801L46.4688 18.7459V18.2016C46.9589 18.2488 47.4489 18.1101 47.8403 17.8133C48.1091 17.5533 48.2452 17.0576 48.2452 16.333V8.15458C48.2888 7.55286 48.158 6.95133 47.8683 6.42113C47.6135 6.05017 47.1493 5.86296 46.4722 5.86296V5.32559C47.0306 5.3776 47.5716 5.40186 48.0916 5.40186C48.7071 5.40452 49.3222 5.37443 49.9344 5.31172C50.4765 5.25979 51.0142 5.16942 51.5433 5.04131V7.63108C51.8829 6.75141 52.5195 6.01616 53.3442 5.55094C54.1181 5.15635 54.9767 4.95411 55.8466 4.96157Z" fill="white"/>
<path d="M67.2994 1.06836V5.34997H70.6429V5.87H67.2994V16.2013C67.2577 16.6696 67.381 17.1378 67.6484 17.5257C67.7699 17.6585 67.9198 17.7626 68.0871 17.8304C68.2544 17.8982 68.4348 17.9279 68.6151 17.9175C69.0276 17.9129 69.422 17.7487 69.7145 17.4598C70.1174 17.0293 70.4169 16.5137 70.5905 15.9517L71.0617 16.1597C70.8324 16.9518 70.416 17.678 69.8471 18.278C69.5409 18.5695 69.1772 18.7949 68.779 18.9399C68.3807 19.0849 67.9566 19.1464 67.5332 19.1205C67.0238 19.1339 66.5159 19.0588 66.0325 18.8986C65.6431 18.7613 65.2865 18.5453 64.9855 18.2641C64.6028 17.8662 64.3362 17.3725 64.2142 16.8358C64.0682 16.1101 64.0026 15.3707 64.0187 14.6308V5.87H61.7188V5.34997H64.0187V1.73747C64.6044 1.72338 65.1881 1.66193 65.7637 1.55372C66.2936 1.45455 66.8093 1.29156 67.2994 1.06836Z" fill="white"/>
<path d="M78.1387 4.9619C79.2477 4.94122 80.3455 5.18619 81.3391 5.67608C82.302 6.18212 83.0799 6.97668 83.5623 7.9469C84.1114 8.98696 84.3859 10.3541 84.3859 12.0482C84.3859 13.7424 84.1114 15.1095 83.5623 16.1496C83.0824 17.119 82.3036 17.9109 81.3391 18.41C80.3428 18.89 79.2458 19.1277 78.1387 19.1034C77.0273 19.1257 75.9263 18.8881 74.9243 18.41C73.9571 17.9157 73.178 17.1223 72.7046 16.1496C72.1672 15.1118 71.8984 13.7447 71.8984 12.0482C71.8984 10.3518 72.1683 8.98465 72.7081 7.9469C73.1842 6.97343 73.9623 6.17745 74.9278 5.67608C75.9258 5.18814 77.0265 4.94333 78.1387 4.9619ZM78.1387 5.48194C77.3197 5.48194 76.6531 5.99619 76.1389 7.0247C75.6247 8.05321 75.3676 9.72772 75.3676 12.0482C75.3676 14.3595 75.6247 16.0294 76.1389 17.0579C76.6531 18.0864 77.3197 18.5972 78.1387 18.5903C78.9414 18.5903 79.601 18.0806 80.1245 17.0579C80.6481 16.0352 80.9098 14.3676 80.9098 12.0482C80.9098 9.72888 80.6481 8.05437 80.1245 7.0247C79.601 5.99504 78.9414 5.48194 78.1387 5.48194Z" fill="white"/>
<path d="M19.0458 27.5622C19.1997 27.4528 19.3807 27.3869 19.5693 27.3715C19.7089 27.3715 19.7822 27.4617 19.7822 27.6385V27.7148C17.8135 29.4584 15.7043 31.0388 13.4756 32.4401C11.3118 33.7992 9.50743 34.4787 8.06254 34.4787C6.92943 34.4787 6.36171 33.8061 6.35938 32.4609C6.35705 31.1158 7.1714 29.6493 8.80243 28.0615C10.4311 26.4736 12.2041 25.6797 14.1213 25.6797C14.4879 25.6786 14.8486 25.7718 15.1683 25.9501C15.24 26.0195 15.2958 26.1035 15.3319 26.1962C15.368 26.2889 15.3836 26.3882 15.3777 26.4875C15.3777 26.7163 15.1404 27.1323 14.6797 27.7356C14.219 28.3388 13.7723 28.637 13.3849 28.637C12.9486 28.5607 12.7288 28.4081 12.7288 28.1759C12.7288 28.0753 12.8439 27.9089 13.0778 27.6766C13.514 27.2918 13.7339 27.011 13.7339 26.8342C13.7339 26.6574 13.5908 26.5638 13.3081 26.5638C12.4054 26.5892 11.2711 27.3253 9.9053 28.7722C8.53951 30.219 7.86011 31.4162 7.86709 32.3639C7.86709 33.0804 8.33244 33.4398 9.26312 33.4421C10.3497 33.3971 11.4018 33.0499 12.2995 32.4401C14.3237 31.2117 16.2554 29.8387 18.079 28.3319L19.0458 27.5622Z" fill="white"/>
<path d="M22.1075 30.6375C23.55 30.6375 25.2776 29.8286 27.2902 28.2107L27.9463 28.4048C25.4195 30.5034 23.2406 31.5528 21.4094 31.5528C21.2552 31.5587 21.1008 31.5483 20.9487 31.5216C20.3026 32.3219 19.5321 33.0147 18.6662 33.574C18.0336 34.0333 17.2839 34.3072 16.5024 34.3644C15.5112 34.3644 15.0156 33.8201 15.0156 32.7315C15.0156 31.6429 15.9347 30.1891 17.7728 28.3702C17.4644 27.6269 17.3067 26.8305 17.3086 26.0265C17.2962 25.6486 17.3698 25.2728 17.5239 24.927C17.6779 24.5813 17.9086 24.2745 18.1986 24.0296C18.7677 23.5257 19.5058 23.2512 20.2682 23.26C20.635 23.2519 20.9998 23.3157 21.3417 23.4478C21.6836 23.5798 21.996 23.7775 22.261 24.0296C22.5429 24.3176 22.7609 24.661 22.901 25.0378C23.0411 25.4146 23.1001 25.8164 23.0742 26.2172C23.04 27.7852 22.5437 29.3087 21.6468 30.5994C21.7985 30.6287 21.953 30.6415 22.1075 30.6375ZM16.6141 32.52C16.6141 33.0331 16.9631 33.2862 17.6192 33.2862C18.2754 33.2862 19.1409 32.5928 20.1705 31.2511C19.3886 30.8057 18.746 30.1542 18.3137 29.3686C17.1806 30.5936 16.6141 31.6441 16.6141 32.52ZM20.8685 30.2527C21.6665 28.9214 22.0656 27.7877 22.0656 26.8517C22.0656 25.9156 21.8329 25.2222 21.3676 24.7715C21.0233 24.3785 20.5365 24.1367 20.0134 24.0989C19.1106 24.0989 18.6593 24.5612 18.6593 25.4857C18.6648 26.4347 18.8767 27.3714 19.2805 28.2315C19.6103 29.0388 20.1602 29.7388 20.8685 30.2527Z" fill="white"/>
<path d="M43.761 27.6768C38.3235 32.1884 34.9591 34.443 33.6677 34.4407C32.9208 34.4407 32.5474 34.1321 32.5474 33.5185C32.5474 32.9048 32.8231 32.1733 33.3781 31.3274C33.8846 30.5452 34.4394 29.7949 35.0393 29.0809C35.5942 28.4256 35.8735 28.0408 35.8735 27.909C35.8735 27.7773 35.8351 27.7149 35.7548 27.7149C33.3559 29.3051 31.932 30.2792 31.4829 30.6375C31.0292 30.9842 30.2963 31.584 29.2772 32.4021C28.2581 33.2203 27.595 33.7369 27.2844 33.9414C26.9883 34.1421 26.6377 34.2485 26.2792 34.2465C25.9302 34.2465 25.7383 34.094 25.7383 33.7854C25.7383 33.4769 26.4607 32.3016 27.9056 30.4052C29.3505 28.5088 29.9997 27.448 29.9997 27.2157C29.9997 27.1671 29.9543 27.1394 29.8635 27.1394C29.7728 27.1394 28.6525 27.9229 26.5305 29.4726L26.3735 28.8971C28.2069 27.4364 29.4447 26.5015 30.0869 26.0924C30.5447 25.7525 31.0858 25.5406 31.654 25.4788C32.0553 25.4788 32.2542 25.6694 32.2542 26.0543C32.2542 26.3108 31.526 27.3509 30.0695 29.1745C28.6129 30.9981 27.8847 31.9838 27.8847 32.1317C27.8847 32.2739 27.9266 32.3432 28.0173 32.3432C28.108 32.3432 29.5774 31.3031 32.4288 29.2507C35.2801 27.1983 37.0007 26.1791 37.6115 26.1791C37.8059 26.1851 37.9916 26.2602 38.135 26.3906C38.2032 26.4361 38.2609 26.4954 38.3042 26.5648C38.3475 26.6341 38.3755 26.7118 38.3863 26.7927C38.3863 27.1001 37.7034 28.1182 36.3376 29.847C34.9718 31.5759 34.2878 32.5558 34.2855 32.787C34.2855 33.0192 34.446 33.1337 34.7706 33.1337C35.0952 33.1337 35.7827 32.787 36.8402 32.0936C38.691 30.8999 40.4726 29.6035 42.1765 28.2107L43.0281 27.5173C43.1713 27.4029 43.3472 27.3362 43.5307 27.3266C43.562 27.3219 43.594 27.3246 43.6241 27.3344C43.6542 27.3443 43.6816 27.361 43.704 27.3833C43.7264 27.4055 43.7432 27.4327 43.7531 27.4626C43.763 27.4925 43.7657 27.5243 43.761 27.5554V27.6768Z" fill="white"/>
<path d="M51.082 24.6189C51.0052 24.4351 50.6807 24.2375 50.1013 24.033C49.5971 23.85 49.0819 23.6984 48.5587 23.5788C48.4156 23.5303 48.1294 23.4436 47.7036 23.3223C47.3903 23.226 47.0708 23.1507 46.7473 23.0969C46.5379 23.0692 46.1052 23.0276 45.4595 22.9652C44.2912 22.9364 43.1227 23.0165 41.9694 23.2044C41.7391 23.246 41.5611 23.4332 41.4389 23.7695C41.3762 23.9073 41.3438 24.0568 41.3438 24.2081C41.3438 24.3593 41.3762 24.5088 41.4389 24.6466C41.5135 24.8371 41.6531 24.9954 41.8333 25.0938C41.9659 25.1424 42.0637 25.0834 42.1265 24.917C42.2661 24.5253 42.3813 24.3311 42.4755 24.3311L42.8245 24.2653C43.7342 24.0675 44.6708 24.0218 45.5956 24.1301C45.6054 24.1254 45.6162 24.123 45.627 24.123C45.6379 24.123 45.6486 24.1254 45.6584 24.1301C45.7422 24.1578 45.8434 24.1301 45.9272 24.1647C46.8192 24.2661 47.6964 24.4697 48.5412 24.7714L50.4887 25.8115C50.7086 25.8912 50.8691 25.7907 50.9703 25.5133C51.1114 25.2372 51.1509 24.9209 51.082 24.6189Z" fill="white"/>
<path d="M51.034 27.5623C51.034 27.4098 50.9677 27.3335 50.8386 27.3335C50.668 27.349 50.5062 27.4155 50.3744 27.5242L49.5228 28.2175C47.8941 29.5257 46.1025 30.82 44.1481 32.1005C43.0894 32.8193 42.4124 33.1775 42.1169 33.1752C41.8202 33.1752 41.6736 32.9707 41.6736 32.5616C41.6736 31.5099 42.5113 29.8921 44.1865 27.7079C45.8617 25.5238 47.5381 23.4968 49.2157 21.627C49.2803 21.5552 49.3226 21.4664 49.3376 21.3713C49.3526 21.2762 49.3396 21.1788 49.3001 21.0909C49.2606 21.0029 49.1964 20.9282 49.1152 20.8757C49.034 20.8232 48.9392 20.7952 48.8422 20.7949H48.591C48.5182 20.7945 48.4461 20.8097 48.3798 20.8397C48.3135 20.8696 48.2546 20.9135 48.2071 20.9683C47.2229 22.11 46.1968 23.3061 45.1288 24.5565C43.8173 26.0894 42.615 27.7112 41.5305 29.4102C40.4347 31.1274 39.8867 32.4726 39.8867 33.4456C39.8867 34.1113 40.2602 34.4441 41.007 34.4441C41.4468 34.4441 42.5113 33.8801 44.2004 32.7522C45.8896 31.6243 47.4753 30.4976 48.9574 29.372C50.4407 28.2453 51.1282 27.6802 51.027 27.6802L51.034 27.5623Z" fill="white"/>
<path d="M57.6483 27.5244C57.7895 27.4205 57.9554 27.3548 58.1299 27.3337C58.2451 27.3337 58.3044 27.41 58.3044 27.5625V27.6769C58.4056 27.6769 57.7181 28.242 56.2348 29.3687C54.7515 30.4955 53.167 31.6222 51.4778 32.749C49.7886 33.8757 48.7241 34.4408 48.2879 34.4408C47.5375 34.4408 47.1641 34.1323 47.1641 33.5186C47.1641 32.7767 47.8086 31.3738 49.0976 29.3098C50.3866 27.2459 51.3277 26.215 51.921 26.2173C52.3608 26.2173 52.5807 26.3838 52.5807 26.7166C52.5807 27.0494 51.9873 27.9589 50.8007 29.445C49.6141 30.9312 49.0208 31.9943 49.0208 32.6346C49.0208 32.9813 49.1569 33.1719 49.4291 33.1719C49.7014 33.1719 50.3749 32.8252 51.4603 32.0972C53.3938 30.8144 55.1726 29.5201 56.7967 28.2143L57.6483 27.5244ZM54.4548 22.324C54.5628 22.3184 54.6708 22.3359 54.7713 22.3754C54.8719 22.4149 54.9627 22.4754 55.0377 22.5528C55.1883 22.7373 55.2642 22.9709 55.2506 23.2081C55.1845 23.6216 54.979 24.0005 54.6677 24.2828C54.2908 24.7381 53.9558 24.9658 53.6626 24.9658C53.5467 24.9761 53.43 24.9585 53.3225 24.9145C53.2149 24.8704 53.1197 24.8012 53.0448 24.7127C52.9151 24.5488 52.8461 24.3456 52.8494 24.1372C52.8494 23.9223 53.0553 23.5686 53.4706 23.0971C53.886 22.6256 54.2105 22.3379 54.4513 22.3379L54.4548 22.324Z" fill="white"/>
<path d="M69.055 27.5622C69.1979 27.4472 69.3739 27.3804 69.5576 27.3715C69.7111 27.3715 69.7879 27.4616 69.7879 27.6385V27.7147C67.9071 29.3001 65.9454 30.7882 63.9106 32.1732L56.1731 37.1689L53.7754 40.511C50.0527 45.5542 48.1913 48.2688 48.1913 48.6548C47.7795 49.5515 47.3805 49.9999 46.9942 49.9999C46.5056 49.9999 46.2578 49.681 46.2578 49.0396C46.2578 48.3982 46.5754 47.5419 47.2071 46.4637C47.7368 45.5299 48.365 44.6547 49.0813 43.8531L52.7563 40.0118C53.0681 39.5218 53.6998 38.625 54.6514 37.3215C55.6042 36.0145 56.2394 35.1443 56.5466 34.7075L58.2253 32.246L58.3021 32.0934C58.3032 32.0831 58.3019 32.0727 58.2985 32.063C58.295 32.0532 58.2894 32.0444 58.282 32.0371C58.2746 32.0298 58.2657 32.0242 58.2559 32.0207C58.2461 32.0173 58.2356 32.0161 58.2253 32.0171C56.7036 33.2722 55.4402 33.8997 54.4351 33.8997C53.4299 33.8997 52.9239 33.6119 52.9239 33.0329C52.9239 32.454 53.3113 31.6947 54.0861 30.7483C54.9222 29.7344 55.8574 28.8053 56.8781 27.9747C57.9999 27.0657 59.2237 26.2886 60.5252 25.6589C61.6087 25.07 62.813 24.7344 64.0467 24.6777C65.0635 24.6777 65.5719 25.036 65.5719 25.7525C65.5719 26.2656 65.0891 26.8804 64.1235 27.5969C63.1579 28.3133 62.5646 28.6716 62.3436 28.6716C62.1237 28.6716 62.0155 28.6231 62.0155 28.5191C62.0254 28.4281 62.0589 28.3413 62.1127 28.2672C62.1665 28.193 62.2389 28.1341 62.3226 28.0961C63.2021 27.4825 63.6384 26.9 63.6384 26.3626C63.6384 25.8253 63.408 25.5375 62.9404 25.5375C61.8073 25.5375 60.2274 26.4909 58.2008 28.3977C56.1743 30.3045 55.1622 31.6554 55.1645 32.4505C55.1645 32.6828 55.3529 32.7972 55.7264 32.7972C56.0998 32.7972 56.7385 32.4956 57.6424 31.8958C58.404 31.4166 59.0937 30.833 59.6911 30.1624L60.7381 28.8553C60.7922 28.7719 60.8666 28.7033 60.9545 28.6561C61.0423 28.6088 61.1408 28.5843 61.2407 28.5849C61.4388 28.5823 61.631 28.6513 61.7817 28.7791C61.8467 28.8214 61.9014 28.8776 61.9419 28.9435C61.9823 29.0095 62.0075 29.0836 62.0155 29.1604L57.3353 35.6158L63.059 32.0449C64.8572 30.9434 66.5646 29.7018 68.165 28.3318L69.055 27.5622Z" fill="white"/>
<path d="M72.031 30.6374C73.4759 30.6374 75.2035 29.8284 77.2138 28.2105L77.8699 28.4047C75.3431 30.5033 73.1653 31.5526 71.3365 31.5526C71.1808 31.5569 71.0251 31.5441 70.8723 31.5145C70.2244 32.3132 69.4542 33.0058 68.5898 33.5669C67.9562 34.0269 67.2052 34.3008 66.4225 34.3573C65.4406 34.3573 64.9508 33.813 64.9531 32.7244C64.9555 31.6358 65.8745 30.1844 67.7103 28.37C67.4003 27.6272 67.2425 26.8305 67.2461 26.0264C67.2337 25.6485 67.3073 25.2727 67.4614 24.9269C67.6154 24.5812 67.8461 24.2744 68.1361 24.0295C68.7049 23.525 69.4432 23.2504 70.2057 23.2598C70.572 23.2511 70.9365 23.3146 71.278 23.4467C71.6194 23.5788 71.9311 23.7769 72.195 24.0295C72.4775 24.317 72.6958 24.6604 72.8359 25.0373C72.976 25.4142 73.0347 25.8162 73.0082 26.2171C72.973 27.7854 72.4755 29.309 71.5773 30.5992C71.7267 30.6279 71.8788 30.6407 72.031 30.6374ZM66.5376 32.5199C66.5376 33.033 66.8866 33.2861 67.5463 33.2861C68.2059 33.2861 69.0644 32.5927 70.0975 31.251C69.3135 30.8084 68.6702 30.1562 68.2408 29.3685C67.1077 30.5935 66.54 31.6439 66.5376 32.5199ZM70.792 30.2525C71.5901 28.9213 71.9903 27.7876 71.9926 26.8515C71.9926 25.9155 71.7588 25.2256 71.2946 24.7714C70.9494 24.3796 70.4631 24.1381 69.9404 24.0988C69.0354 24.0988 68.584 24.5611 68.5863 25.4856C68.5922 26.4342 68.8028 27.3705 69.204 28.2313C69.5349 29.038 70.0847 29.7377 70.792 30.2525Z" fill="white"/>
</svg>
