<svg width="416" height="78" viewBox="0 0 416 78" fill="none" xmlns="http://www.w3.org/2000/svg">
<path fill-rule="evenodd" clip-rule="evenodd" d="M391.969 76.4444C396.236 75.4072 400.131 73.7345 403.673 71.4094C407.214 69.101 410.148 66.1403 412.492 62.5439C414.82 58.9475 416 54.682 416 49.7306C416 45.2644 415.123 40.9487 413.352 36.8003C411.582 32.6519 408.968 28.9719 405.511 25.777C402.054 22.582 397.872 20.0227 392.964 18.1158C388.057 16.1922 382.458 15.2387 376.185 15.2387C368.293 15.2387 361.059 16.3929 354.465 18.718C347.871 21.0264 341.547 23.9537 335.51 27.4664C329.473 30.9792 323.638 34.8098 318.006 38.9582C312.373 43.1066 306.707 46.9372 300.991 50.4499C295.274 53.9627 289.405 56.8733 283.368 59.1984C277.331 61.5068 270.94 62.6777 264.177 62.6777C259.827 62.6777 255.122 61.9919 250.063 60.6369C244.987 59.282 240.282 57.3584 235.948 54.8827C231.597 52.407 227.988 49.2957 225.088 45.5488C222.187 41.8018 220.737 37.5196 220.737 32.7356C220.737 29.8585 221.175 27.2323 222.069 24.8402C222.946 22.4482 224.127 20.1231 225.577 17.8983C227.179 20.4576 229.236 22.8497 231.732 25.0744C234.228 27.3159 236.875 29.1894 239.692 30.6948C242.508 32.217 245.408 33.4047 248.376 34.2912C251.361 35.1611 254.211 35.6127 256.943 35.6127C262.744 35.6127 267.921 34.3749 272.508 31.8992C277.095 29.4235 279.388 25.0744 279.388 18.8518C279.388 15.9747 278.63 13.499 277.095 11.4248C275.56 9.35063 273.52 7.71134 270.94 6.5237C268.36 5.31932 265.425 4.44949 262.12 3.89749C258.815 3.34548 255.408 3.06112 251.867 3.06112C246.875 3.06112 242.086 3.98113 237.499 5.82114C232.912 7.66116 229.017 10.4045 225.796 14.0845C224.143 10.8728 223.351 7.59425 223.351 4.24876C223.351 3.12803 223.418 2.04074 223.536 1.02037C223.604 0.468366 223.148 -0.0167296 222.592 0.0167252H222.575C222.137 0.0334526 221.766 0.351274 221.698 0.76946C221.513 1.8902 221.428 3.04439 221.428 4.24876C221.428 8.07935 222.474 11.8263 224.565 15.5063C220.855 20.1231 219 25.8773 219 32.7356C219 37.5196 220.282 41.8688 222.862 45.783C225.442 49.6972 228.865 53.0427 233.115 55.8362C237.381 58.6296 242.255 60.7875 247.719 62.3097C253.199 63.8319 258.747 64.5846 264.38 64.5846C272.272 64.5846 279.591 63.4304 286.353 61.1053C293.115 58.7969 299.473 55.8696 305.426 52.3568C311.379 48.8441 317.129 45.0971 322.694 41.0993C328.242 37.1014 333.841 33.3545 339.473 29.8417C345.106 26.329 350.94 23.4184 356.978 21.0933C363.015 18.7849 369.49 17.614 376.404 17.614C382.205 17.614 387.433 18.534 392.104 20.374C396.776 22.214 400.755 24.6395 404.061 27.6839C407.366 30.7116 409.895 34.1574 411.666 37.988C413.437 41.8186 414.314 45.8164 414.314 49.9648C414.314 53.4776 413.47 56.8231 411.784 60.018C410.098 63.213 407.72 65.973 404.668 68.2814C401.615 70.5898 397.99 72.4298 393.808 73.7847C389.625 75.1396 385.039 75.8254 380.047 75.8254C377.146 75.8254 374.01 75.424 370.637 74.6211C367.264 73.8181 364.111 72.5803 361.227 70.9076C358.327 69.2348 355.915 67.0435 353.993 64.317C352.053 61.6071 351.092 58.2449 351.092 54.2638C351.092 48.8441 353.74 44.6121 359.052 41.5677C364.364 38.54 371.042 37.0178 379.086 37.0178C380.688 37.0178 382.391 37.3022 384.162 37.8542C385.932 38.4062 387.585 39.2091 389.103 40.2462C390.637 41.2833 391.885 42.4877 392.846 43.8426C393.808 45.1975 394.297 46.6695 394.297 48.2754C394.297 49.8645 393.892 51.303 393.082 52.591C392.273 53.8623 391.278 54.866 390.064 55.5852C388.85 56.3045 387.534 56.8565 386.084 57.258C384.634 57.6594 383.352 57.8602 382.222 57.8602C379.49 57.8602 377.433 57.626 376.067 57.1409C374.701 56.6558 373.369 55.786 372.087 54.5147C371.278 54.3474 370.671 54.4812 370.283 54.866C369.878 55.2674 369.929 55.8696 370.401 56.6558C372.34 57.9271 374.263 58.8136 376.202 59.282C378.141 59.7671 380.064 60.0013 382.003 60.0013C385.224 60.0013 388.361 59.0813 391.413 57.2413C394.465 55.4012 396 52.407 396 48.2586C396 43.4746 394.195 39.8447 390.57 37.3691C386.944 34.8934 383.133 33.6556 379.103 33.6556C370.418 33.6556 363.167 35.412 357.382 38.9247C351.581 42.4375 348.698 47.5393 348.698 54.247C348.698 61.4231 351.632 67.1774 357.517 71.493C363.386 75.8087 370.924 77.9665 380.098 77.9665C383.723 78 387.703 77.4815 391.969 76.4444ZM238.68 8.19644C243.267 6.35642 247.651 5.43641 251.833 5.43641C259.236 5.43641 265.189 6.55715 269.692 8.7819C274.194 11.0234 276.454 14.3689 276.454 18.8351C276.454 21.3944 275.847 23.4686 274.65 25.0577C273.436 26.6468 271.867 27.8846 269.945 28.7712C268.005 29.641 265.881 30.2097 263.554 30.4439C261.226 30.6781 258.933 30.7952 256.673 30.7952C251.53 30.7952 246.049 29.5908 240.265 27.1988C234.464 24.8068 230.046 21.1267 226.993 16.1754C230.181 12.6961 234.093 10.0365 238.68 8.19644Z" fill="white"/>
<path fill-rule="evenodd" clip-rule="evenodd" d="M24.0306 76.4444C19.7641 75.4072 15.8686 73.7345 12.3273 71.4094C8.7859 69.101 5.85164 66.1403 3.5076 62.5439C1.18044 58.9475 0 54.682 0 49.7306C0 45.2644 0.876892 40.9487 2.64757 36.8003C4.41824 32.6519 7.03209 28.9719 10.4891 25.777C13.9462 22.582 18.1283 20.0227 23.0356 18.1158C27.9429 16.1922 33.5416 15.2387 39.8148 15.2387C47.707 15.2387 54.9414 16.3929 61.5351 18.718C68.1287 21.0264 74.4526 23.9537 80.4897 27.4664C86.5269 30.9792 92.3617 34.8098 97.9941 38.9582C103.627 43.1066 109.293 46.9372 115.009 50.4499C120.726 53.9627 126.595 56.8733 132.632 59.1984C138.669 61.5068 145.06 62.6777 151.823 62.6777C156.173 62.6777 160.878 61.9919 165.937 60.6369C171.013 59.282 175.718 57.3584 180.052 54.8827C184.403 52.407 188.012 49.2957 190.912 45.5488C193.813 41.8018 195.263 37.5196 195.263 32.7356C195.263 29.8585 194.825 27.2323 193.931 24.8402C193.054 22.4482 191.873 20.1231 190.423 17.8983C188.821 20.4576 186.764 22.8497 184.268 25.0744C181.772 27.3159 179.125 29.1894 176.308 30.6948C173.492 32.217 170.592 33.4047 167.624 34.2912C164.639 35.1611 161.789 35.6127 159.057 35.6127C153.256 35.6127 148.079 34.3749 143.492 31.8992C138.905 29.4235 136.612 25.0744 136.612 18.8518C136.612 15.9747 137.37 13.499 138.905 11.4248C140.44 9.35063 142.48 7.71134 145.06 6.5237C147.64 5.31932 150.575 4.44949 153.88 3.89749C157.185 3.34548 160.592 3.06112 164.133 3.06112C169.125 3.06112 173.914 3.98113 178.501 5.82114C183.088 7.66116 186.983 10.4045 190.204 14.0845C191.857 10.8728 192.649 7.59425 192.649 4.24876C192.649 3.12803 192.582 2.04074 192.464 1.02037C192.396 0.468366 192.852 -0.0167296 193.408 0.0167252H193.425C193.863 0.0334526 194.234 0.351274 194.302 0.76946C194.487 1.8902 194.572 3.04439 194.572 4.24876C194.572 8.07935 193.526 11.8263 191.435 15.5063C195.145 20.1231 197 25.8773 197 32.7356C197 37.5196 195.718 41.8688 193.138 45.783C190.558 49.6972 187.135 53.0427 182.885 55.8362C178.619 58.6296 173.745 60.7875 168.281 62.3097C162.801 63.8319 157.253 64.5846 151.62 64.5846C143.728 64.5846 136.409 63.4304 129.647 61.1053C122.885 58.7969 116.527 55.8696 110.574 52.3568C104.621 48.8441 98.871 45.0971 93.306 41.0993C87.7579 37.1014 82.1592 33.3545 76.5268 29.8417C70.8944 26.329 65.0596 23.4184 59.0224 21.0933C52.9853 18.7849 46.5097 17.614 39.5956 17.614C33.7945 17.614 28.5668 18.534 23.8956 20.374C19.2244 22.214 15.2446 24.6395 11.9394 27.6839C8.63412 30.7116 6.1046 34.1574 4.33392 37.988C2.56325 41.8186 1.68636 45.8164 1.68636 49.9648C1.68636 53.4776 2.52953 56.8231 4.21588 60.018C5.90224 63.213 8.28 65.973 11.3323 68.2814C14.3846 70.5898 18.0103 72.4298 22.1924 73.7847C26.3746 75.1396 30.9615 75.8254 35.9531 75.8254C38.8536 75.8254 41.9902 75.424 45.3629 74.6211C48.7357 73.8181 51.8891 72.5803 54.7728 70.9076C57.6733 69.2348 60.0848 67.0435 62.0073 64.317C63.9466 61.6071 64.9078 58.2449 64.9078 54.2638C64.9078 48.8441 62.2602 44.6121 56.9482 41.5677C51.6362 38.54 44.9582 37.0178 36.9143 37.0178C35.3123 37.0178 33.609 37.3022 31.8384 37.8542C30.0677 38.4062 28.4151 39.2091 26.8974 40.2462C25.3628 41.2833 24.1149 42.4877 23.1536 43.8426C22.1924 45.1975 21.7034 46.6695 21.7034 48.2754C21.7034 49.8645 22.1081 51.303 22.9175 52.591C23.727 53.8623 24.722 54.866 25.9361 55.5852C27.1503 56.3045 28.4657 56.8565 29.9159 57.258C31.3662 57.6594 32.6478 57.8602 33.7777 57.8602C36.5096 57.8602 38.5669 57.626 39.9329 57.1409C41.2988 56.6558 42.631 55.786 43.9127 54.5147C44.7221 54.3474 45.3292 54.4812 45.7171 54.866C46.1218 55.2674 46.0712 55.8696 45.599 56.6558C43.6597 57.9271 41.7373 58.8136 39.798 59.282C37.8587 59.7671 35.9362 60.0013 33.9969 60.0013C30.776 60.0013 27.6393 59.0813 24.587 57.2413C21.5347 55.4012 20.0002 52.407 20.0002 48.2586C20.0002 43.4746 21.8046 39.8447 25.4302 37.3691C29.0559 34.8934 32.8671 33.6556 36.8974 33.6556C45.5822 33.6556 52.8335 35.412 58.6177 38.9247C64.4188 42.4375 67.3024 47.5393 67.3024 54.247C67.3024 61.4231 64.3682 67.1774 58.4828 71.493C52.6143 75.8087 45.0763 77.9665 35.9025 77.9665C32.2768 78 28.297 77.4815 24.0306 76.4444ZM177.32 8.19644C172.733 6.35642 168.349 5.43641 164.167 5.43641C156.764 5.43641 150.811 6.55715 146.308 8.7819C141.806 11.0234 139.546 14.3689 139.546 18.8351C139.546 21.3944 140.153 23.4686 141.35 25.0577C142.564 26.6468 144.133 27.8846 146.055 28.7712C147.995 29.641 150.119 30.2097 152.446 30.4439C154.774 30.6781 157.067 30.7952 159.327 30.7952C164.47 30.7952 169.951 29.5908 175.735 27.1988C181.536 24.8068 185.954 21.1267 189.007 16.1754C185.819 12.6961 181.907 10.0365 177.32 8.19644Z" fill="white"/>
</svg>
