<svg width="571" height="338" viewBox="0 0 571 338" fill="none" xmlns="http://www.w3.org/2000/svg">
<path d="M60.4105 0.0267596C66.963 -0.195596 73.4881 0.969845 79.5522 3.44564C84.3036 5.57077 88.7828 8.25145 92.8949 11.4308C95.2522 13.1871 97.0438 13.3744 98.2696 12.0397C99.4954 10.7049 100.368 7.49677 100.839 2.48554H104.894C104.658 6.93477 104.477 12.3987 104.352 18.8774C104.226 25.3561 104.171 33.8331 104.187 44.3083H100.132C99.4247 39.0472 98.6389 34.6371 97.7746 31.0777C97.0992 27.8186 95.9392 24.6775 94.3328 21.7577C92.7087 19.0034 90.656 16.5217 88.2509 14.4048C85.1368 10.9396 81.2326 8.26572 76.8648 6.60693C72.447 4.89832 67.7444 4.03238 63.0036 4.05448C57.3505 3.96346 51.8135 5.65206 47.1857 8.87838C42.4388 12.3355 38.5653 16.8406 35.8704 22.0387C32.685 28.1288 30.4287 34.6554 29.1755 41.4046C27.6641 49.1189 26.9219 56.9625 26.9596 64.8215C26.8987 72.8047 27.6889 80.7719 29.317 88.5898C30.6781 95.2806 33.0632 101.725 36.389 107.698C39.1966 112.797 43.1891 117.156 48.0344 120.413C52.8231 123.546 58.4489 125.178 64.1823 125.097C68.7561 125.093 73.2947 124.301 77.5956 122.755C81.9635 121.276 85.8594 118.674 88.8873 115.215C92.646 111.804 95.352 107.402 96.6902 102.523C98.3764 96.1688 99.5043 89.6814 100.061 83.1336H104.116C104.116 94.1162 104.116 102.991 104.281 109.712C104.446 116.433 104.587 122.053 104.823 126.619H100.839C100.368 121.608 99.5662 118.446 98.4818 117.252C97.3974 116.058 95.5115 116.128 92.942 117.767C88.5643 120.825 83.9263 123.497 79.0807 125.752C73.1193 128.24 66.6836 129.407 60.2219 129.171C49.213 129.415 38.329 126.817 28.6333 121.631C19.5477 116.639 12.1624 109.074 7.41713 99.9002C2.18401 89.2317 -0.348783 77.4556 0.0386078 65.5943C-0.229888 53.687 2.43244 41.8946 7.79431 31.2416C12.6471 21.776 20.0382 13.8262 29.152 8.26953C38.5904 2.67202 49.42 -0.183712 60.4105 0.0267596Z" fill="white"/>
<path d="M205.316 34.0522V107.745C205.011 111.825 205.938 115.902 207.98 119.454C209.725 121.983 212.86 123.224 217.41 123.224V126.924C213.779 126.573 210.125 126.385 206.472 126.385C202.11 126.385 197.961 126.573 194.025 126.924C190.357 127.222 186.726 127.865 183.181 128.844V111.188C180.807 116.988 176.55 121.834 171.088 124.957C166.023 127.686 160.348 129.103 154.586 129.078C150.645 129.191 146.718 128.563 143.012 127.228C139.99 126.192 137.303 124.37 135.23 121.953C133.157 119.536 131.774 116.611 131.225 113.483C130.31 108.856 129.899 104.146 129.999 99.4324V55.0807C130.301 51.0131 129.408 46.9458 127.429 43.3722C125.732 40.8666 122.573 39.6021 118 39.6021V35.9724C121.772 36.3237 125.402 36.4876 128.938 36.4876C133.095 36.5055 137.25 36.3023 141.385 35.8788C145.039 35.53 148.663 34.9196 152.229 34.0522V105.591C152.205 108.413 152.474 111.23 153.03 113.998C153.393 116.462 154.715 118.687 156.712 120.194C158.709 121.7 161.222 122.368 163.709 122.053C167.255 122.089 170.719 120.989 173.586 118.915C176.661 116.715 179.099 113.752 180.659 110.321C182.422 106.471 183.3 102.28 183.228 98.0508V55.0807C183.53 51.0131 182.638 46.9458 180.659 43.3722C178.961 40.8666 175.802 39.6021 171.229 39.6021V35.9724C174.977 36.3237 178.631 36.4876 182.167 36.4876C186.324 36.5044 190.479 36.3011 194.614 35.8788C198.22 35.5215 201.797 34.9111 205.316 34.0522Z" fill="white"/>
<path d="M269.934 33.5133C280.275 33.5133 288.392 36.6356 294.285 42.8801C300.179 49.1246 303.118 58.9988 303.102 72.5026H243.626L243.437 69.1774H282.64C282.904 63.87 282.548 58.5501 281.579 53.3241C280.921 49.1509 279.387 45.1619 277.077 41.6156C276.225 40.2623 275.04 39.1476 273.633 38.3771C272.226 37.6067 270.645 37.206 269.038 37.2132C264.559 37.2132 260.693 39.8359 257.393 45.0345C254.092 50.233 252.042 58.7334 251.216 70.5356L251.924 71.5893C251.682 73.2189 251.532 74.8607 251.476 76.5069C251.476 78.2632 251.476 79.996 251.476 81.7523C251.247 88.5897 252.451 95.3998 255.012 101.75C256.883 106.41 260.077 110.429 264.205 113.318C267.634 115.663 271.689 116.935 275.851 116.971C278.661 116.96 281.455 116.55 284.149 115.754C287.207 114.771 290.031 113.177 292.447 111.07C295.482 108.436 297.993 105.259 299.849 101.704L303.196 103.109C301.747 107.495 299.572 111.61 296.761 115.285C293.686 119.387 289.743 122.768 285.21 125.191C280.127 127.845 274.449 129.175 268.708 129.055C261.29 129.209 253.964 127.39 247.492 123.786C241.233 120.123 236.249 114.649 233.206 108.096C229.572 100.093 227.823 91.3714 228.091 82.5953C227.789 73.3715 229.611 64.2011 233.418 55.7829C236.657 48.9285 241.845 43.1654 248.34 39.2036C254.874 35.3701 262.346 33.4012 269.934 33.5133Z" fill="white"/>
<path d="M377.217 33.5137C381.281 33.3716 385.334 34.024 389.145 35.4339C391.895 36.5588 394.382 38.2325 396.453 40.3515C398.687 42.7744 400.239 45.7382 400.956 48.9455C401.96 53.615 402.403 58.3864 402.276 63.1596V110.321C402.276 115.216 403.195 118.564 405.01 120.32C407.666 122.32 410.981 123.256 414.298 122.943V126.62L404.492 126.175C400.083 126.011 395.817 125.917 391.691 125.917C387.566 125.917 383.11 125.917 378.985 126.175L369.815 126.62V122.943C371.251 123.09 372.701 122.932 374.071 122.48C375.441 122.028 376.698 121.292 377.759 120.32C379.268 118.564 380.117 115.216 380.117 110.321V57.1883C380.145 54.3302 379.845 51.4782 379.221 48.6879C378.748 46.3662 377.512 44.266 375.708 42.7166C373.511 41.1342 370.826 40.3639 368.118 40.5388C364.43 40.4818 360.817 41.5796 357.792 43.6767C354.698 45.8954 352.257 48.8946 350.72 52.3644C348.978 56.2533 348.11 60.4724 348.174 64.7286V110.321C348.174 115.216 348.929 118.564 350.532 120.32C351.579 121.278 352.816 122.006 354.165 122.457C355.513 122.909 356.942 123.075 358.358 122.943V126.62L349.353 126.175C345.346 126.011 341.291 125.917 337.166 125.917C333.04 125.917 328.396 125.917 323.941 126.175L313.875 126.62V122.943C317.186 123.262 320.495 122.325 323.139 120.32C324.955 118.564 325.874 115.216 325.874 110.321V55.0808C326.168 51.0165 325.285 46.9535 323.328 43.3723C321.607 40.8667 318.472 39.6021 313.899 39.6021V35.9725C317.67 36.3238 321.324 36.4877 324.837 36.4877C328.994 36.5056 333.148 36.3024 337.284 35.8788C340.945 35.5281 344.577 34.9177 348.151 34.0523V51.5448C350.445 45.6031 354.744 40.637 360.315 37.4946C365.542 34.8294 371.342 33.4634 377.217 33.5137Z" fill="white"/>
<path d="M454.561 7.21631V36.1363H477.145V39.6488H454.561V109.431C454.28 112.594 455.113 115.756 456.919 118.377C457.739 119.274 458.752 119.977 459.882 120.435C461.012 120.893 462.23 121.093 463.449 121.023C466.234 120.992 468.898 119.883 470.874 117.932C473.595 115.024 475.618 111.541 476.791 107.745L479.974 109.15C478.425 114.5 475.612 119.406 471.77 123.458C469.702 125.427 467.245 126.949 464.555 127.929C461.865 128.908 459 129.323 456.141 129.148C452.7 129.239 449.269 128.732 446.004 127.65C443.374 126.723 440.966 125.263 438.932 123.364C436.348 120.677 434.547 117.342 433.722 113.717C432.736 108.815 432.293 103.821 432.402 98.8235V39.6488H416.867V36.1363H432.402V11.7358C436.358 11.6406 440.3 11.2256 444.189 10.4947C447.768 9.82483 451.251 8.72391 454.561 7.21631Z" fill="white"/>
<path d="M527.806 33.5135C535.297 33.3738 542.712 35.0285 549.423 38.3374C555.926 41.7555 561.181 47.1223 564.439 53.6756C568.148 60.7006 570.002 69.9347 570.002 81.3778C570.002 92.8209 568.148 102.055 564.439 109.08C561.198 115.628 555.937 120.977 549.423 124.348C542.693 127.59 535.283 129.196 527.806 129.031C520.299 129.182 512.862 127.578 506.095 124.348C499.561 121.01 494.299 115.651 491.102 109.08C487.471 102.071 485.656 92.8365 485.656 81.3778C485.656 69.9191 487.479 60.685 491.125 53.6756C494.341 47.1003 499.596 41.7239 506.118 38.3374C512.859 35.0417 520.294 33.3881 527.806 33.5135ZM527.806 37.0261C522.274 37.0261 517.771 40.4996 514.298 47.4466C510.825 54.3937 509.088 65.7041 509.088 81.3778C509.088 96.9891 510.825 108.268 514.298 115.215C517.771 122.162 522.274 125.613 527.806 125.566C533.228 125.566 537.683 122.123 541.219 115.215C544.755 108.307 546.523 97.0438 546.523 81.3778C546.523 65.7119 544.755 54.4015 541.219 47.4466C537.683 40.4918 533.228 37.0261 527.806 37.0261Z" fill="white"/>
<path d="M128.655 186.169C129.695 185.43 130.917 184.985 132.191 184.881C133.134 184.881 133.629 185.49 133.629 186.684V187.199C120.331 198.977 106.085 209.652 91.0313 219.117C76.4157 228.296 64.2282 232.886 54.4688 232.886C46.8152 232.886 42.9806 228.343 42.9649 219.257C42.9492 210.171 48.4497 200.266 59.4664 189.541C70.4674 178.816 82.4427 173.454 95.3925 173.454C97.869 173.446 100.305 174.076 102.465 175.28C102.948 175.749 103.325 176.316 103.569 176.942C103.813 177.568 103.919 178.239 103.879 178.91C103.879 180.455 102.276 183.265 99.1642 187.34C96.0525 191.414 93.0351 193.428 90.4184 193.428C87.4717 192.913 85.9866 191.883 85.9866 190.314C85.9866 189.635 86.7645 188.511 88.344 186.942C91.2907 184.343 92.7758 182.446 92.7758 181.252C92.7758 180.057 91.8093 179.425 89.8998 179.425C83.8021 179.597 76.1407 184.569 66.9156 194.342C57.6905 204.114 53.1015 212.201 53.1487 218.602C53.1487 223.441 56.2918 225.869 62.5781 225.884C69.9175 225.58 77.0235 223.236 83.0871 219.117C96.7599 210.82 109.807 201.545 122.125 191.368L128.655 186.169Z" fill="#F5C568"/>
<path d="M149.308 206.939C159.051 206.939 170.72 201.475 184.314 190.548L188.746 191.859C171.679 206.034 156.961 213.121 144.593 213.121C143.551 213.162 142.508 213.091 141.481 212.911C137.117 218.317 131.912 222.996 126.064 226.774C121.791 229.877 116.727 231.726 111.449 232.113C104.754 232.113 101.406 228.436 101.406 221.083C101.406 213.73 107.614 203.911 120.029 191.625C117.946 186.604 116.881 181.225 116.894 175.795C116.81 173.242 117.307 170.704 118.348 168.368C119.389 166.033 120.947 163.961 122.905 162.307C126.75 158.903 131.735 157.049 136.884 157.108C139.362 157.054 141.826 157.485 144.136 158.377C146.445 159.269 148.555 160.604 150.345 162.307C152.249 164.252 153.722 166.571 154.668 169.116C155.614 171.662 156.012 174.375 155.838 177.083C155.607 187.673 152.255 197.964 146.196 206.682C147.221 206.88 148.264 206.967 149.308 206.939ZM112.203 219.655C112.203 223.121 114.56 224.83 118.992 224.83C123.424 224.83 129.27 220.147 136.224 211.084C130.943 208.076 126.603 203.675 123.683 198.369C116.03 206.643 112.203 213.738 112.203 219.655ZM140.939 204.34C146.33 195.348 149.025 187.691 149.025 181.368C149.025 175.045 147.453 170.362 144.31 167.318C141.985 164.663 138.697 163.03 135.164 162.775C129.066 162.775 126.017 165.897 126.017 172.142C126.054 178.552 127.486 184.878 130.213 190.688C132.441 196.141 136.155 200.869 140.939 204.34Z" fill="#F5C568"/>
<path d="M295.581 186.941C258.854 217.415 236.129 232.643 227.407 232.628C222.362 232.628 219.84 230.544 219.84 226.399C219.84 222.254 221.702 217.313 225.45 211.599C228.872 206.316 232.619 201.248 236.671 196.425C240.419 191.999 242.305 189.4 242.305 188.51C242.305 187.62 242.046 187.199 241.504 187.199C225.301 197.94 215.683 204.52 212.65 206.939C209.585 209.281 204.635 213.332 197.751 218.859C190.868 224.385 186.389 227.874 184.291 229.256C182.291 230.611 179.923 231.33 177.502 231.317C175.144 231.317 173.848 230.286 173.848 228.202C173.848 226.118 178.727 218.18 188.487 205.37C198.246 192.561 202.631 185.396 202.631 183.827C202.631 183.499 202.325 183.312 201.712 183.312C201.099 183.312 193.532 188.604 179.199 199.071L178.138 195.184C190.522 185.318 198.883 179.003 203.22 176.24C206.313 173.944 209.967 172.513 213.805 172.095C216.516 172.095 217.859 173.383 217.859 175.982C217.859 177.715 212.94 184.74 203.102 197.057C193.264 209.375 188.345 216.033 188.345 217.032C188.345 217.992 188.628 218.461 189.241 218.461C189.854 218.461 199.779 211.435 219.038 197.573C238.298 183.71 249.919 176.825 254.045 176.825C255.358 176.866 256.612 177.373 257.581 178.254C258.042 178.561 258.431 178.962 258.724 179.43C259.016 179.899 259.205 180.424 259.278 180.97C259.278 183.046 254.666 189.923 245.441 201.6C236.215 213.278 231.595 219.897 231.579 221.458C231.579 223.027 232.664 223.8 234.856 223.8C237.048 223.8 241.692 221.458 248.835 216.775C261.336 208.712 273.37 199.955 284.879 190.548L290.631 185.864C291.599 185.092 292.786 184.641 294.026 184.576C294.237 184.545 294.453 184.563 294.657 184.629C294.86 184.696 295.045 184.808 295.196 184.959C295.348 185.109 295.461 185.293 295.528 185.495C295.595 185.697 295.613 185.911 295.581 186.122V186.941Z" fill="#F5C568"/>
<path d="M345.038 166.288C344.52 165.047 342.327 163.712 338.414 162.33C335.008 161.095 331.528 160.07 327.995 159.263C327.028 158.935 325.095 158.349 322.219 157.53C320.103 156.879 317.945 156.371 315.76 156.008C314.346 155.82 311.423 155.539 307.061 155.118C299.17 154.924 291.278 155.464 283.488 156.734C281.932 157.015 280.73 158.279 279.905 160.551C279.481 161.481 279.262 162.491 279.262 163.513C279.262 164.534 279.481 165.544 279.905 166.475C280.408 167.761 281.351 168.831 282.568 169.496C283.464 169.824 284.124 169.426 284.549 168.302C285.492 165.656 286.27 164.344 286.906 164.344L289.263 163.899C295.408 162.563 301.734 162.255 307.981 162.986C308.047 162.955 308.12 162.939 308.193 162.939C308.266 162.939 308.339 162.955 308.405 162.986C308.971 163.173 309.654 162.986 310.22 163.22C316.245 163.905 322.17 165.28 327.877 167.318L341.031 174.343C342.516 174.882 343.6 174.203 344.284 172.329C345.237 170.464 345.504 168.327 345.038 166.288Z" fill="#F5C568"/>
<path d="M344.708 186.169C344.708 185.139 344.26 184.623 343.388 184.623C342.236 184.728 341.143 185.177 340.253 185.911L334.501 190.595C323.5 199.431 311.399 208.173 298.197 216.822C291.047 221.677 286.473 224.097 284.478 224.081C282.474 224.081 281.484 222.699 281.484 219.936C281.484 212.833 287.141 201.905 298.457 187.153C309.772 172.4 321.095 158.709 332.426 146.079C332.863 145.594 333.149 144.995 333.25 144.352C333.351 143.71 333.263 143.052 332.996 142.458C332.73 141.864 332.296 141.359 331.747 141.005C331.199 140.65 330.558 140.461 329.904 140.459H328.207C327.715 140.456 327.228 140.559 326.78 140.761C326.333 140.963 325.934 141.26 325.613 141.63C318.966 149.342 312.035 157.421 304.822 165.866C295.963 176.22 287.842 187.175 280.517 198.65C273.115 210.249 269.414 219.335 269.414 225.908C269.414 230.404 271.936 232.652 276.981 232.652C279.951 232.652 287.141 228.843 298.551 221.224C309.961 213.606 320.671 205.995 330.682 198.393C340.7 190.782 345.344 186.965 344.661 186.965L344.708 186.169Z" fill="#F5C568"/>
<path d="M389.378 185.911C390.331 185.21 391.452 184.766 392.631 184.623C393.409 184.623 393.809 185.138 393.809 186.169V186.942C394.493 186.942 389.849 190.759 379.83 198.369C369.811 205.98 359.109 213.59 347.699 221.201C336.29 228.811 329.1 232.628 326.153 232.628C321.085 232.628 318.562 230.544 318.562 226.399C318.562 221.388 322.916 211.912 331.622 197.971C340.329 184.03 346.686 177.067 350.693 177.083C353.664 177.083 355.149 178.207 355.149 180.455C355.149 182.703 351.141 188.846 343.126 198.884C335.111 208.922 331.104 216.103 331.104 220.428C331.104 222.77 332.023 224.057 333.862 224.057C335.701 224.057 340.25 221.716 347.582 216.798C360.641 208.134 372.656 199.392 383.626 190.571L389.378 185.911ZM367.808 150.786C368.537 150.748 369.266 150.866 369.945 151.133C370.625 151.4 371.238 151.808 371.744 152.331C372.762 153.577 373.275 155.155 373.182 156.757C372.736 159.55 371.348 162.109 369.246 164.016C366.7 167.092 364.437 168.629 362.457 168.629C361.674 168.699 360.886 168.58 360.159 168.283C359.433 167.985 358.79 167.518 358.284 166.92C357.408 165.813 356.942 164.441 356.964 163.033C356.964 161.581 358.355 159.192 361.16 156.008C363.965 152.823 366.158 150.879 367.784 150.879L367.808 150.786Z" fill="#F5C568"/>
<path d="M466.443 186.169C467.409 185.392 468.598 184.941 469.838 184.881C470.875 184.881 471.394 185.49 471.394 186.684V187.199C458.69 197.907 445.44 207.959 431.696 217.313L379.433 251.057L363.238 273.631C338.093 307.695 325.521 326.031 325.521 328.638C322.739 334.695 320.044 337.723 317.435 337.723C314.135 337.723 312.461 335.569 312.461 331.237C312.461 326.905 314.606 321.121 318.873 313.838C322.45 307.531 326.694 301.62 331.532 296.205L356.355 270.259C358.461 266.949 362.728 260.892 369.155 252.088C375.591 243.259 379.881 237.382 381.956 234.431L393.295 217.805L393.813 216.775C393.821 216.705 393.812 216.635 393.789 216.569C393.766 216.503 393.728 216.443 393.678 216.394C393.628 216.345 393.568 216.307 393.502 216.284C393.435 216.26 393.365 216.252 393.295 216.26C383.017 224.736 374.483 228.975 367.694 228.975C360.905 228.975 357.486 227.031 357.486 223.121C357.486 219.21 360.103 214.082 365.336 207.689C370.984 200.841 377.301 194.565 384.195 188.955C391.772 182.815 400.039 177.566 408.83 173.313C416.148 169.335 424.283 167.069 432.615 166.686C439.483 166.686 442.917 169.106 442.917 173.945C442.917 177.411 439.656 181.563 433.134 186.403C426.612 191.242 422.604 193.662 421.111 193.662C419.626 193.662 418.896 193.334 418.896 192.632C418.962 192.018 419.188 191.431 419.552 190.931C419.916 190.43 420.404 190.031 420.97 189.775C426.911 185.63 429.857 181.696 429.857 178.066C429.857 174.437 428.301 172.493 425.143 172.493C417.489 172.493 406.818 178.933 393.13 191.812C379.441 204.692 372.605 213.816 372.621 219.187C372.621 220.756 373.894 221.528 376.416 221.528C378.938 221.528 383.252 219.491 389.358 215.44C394.502 212.203 399.161 208.262 403.196 203.731L410.268 194.903C410.633 194.339 411.135 193.876 411.729 193.557C412.322 193.238 412.987 193.073 413.662 193.077C415 193.059 416.299 193.525 417.316 194.388C417.755 194.674 418.125 195.053 418.398 195.499C418.672 195.945 418.841 196.445 418.896 196.964L387.283 240.566L425.944 216.447C438.09 209.007 449.622 200.62 460.432 191.367L466.443 186.169Z" fill="#F5C568"/>
<path d="M486.549 206.939C496.309 206.939 507.978 201.476 521.556 190.548L525.988 191.859C508.921 206.034 494.211 213.122 481.858 213.122C480.807 213.15 479.755 213.064 478.723 212.864C474.347 218.259 469.144 222.937 463.306 226.727C459.026 229.834 453.954 231.684 448.667 232.066C442.035 232.066 438.727 228.389 438.742 221.036C438.758 213.684 444.966 203.88 457.365 191.625C455.272 186.608 454.206 181.226 454.23 175.795C454.146 173.242 454.643 170.704 455.684 168.368C456.725 166.033 458.283 163.961 460.241 162.307C464.083 158.899 469.07 157.044 474.22 157.108C476.695 157.049 479.157 157.478 481.463 158.37C483.77 159.263 485.875 160.601 487.657 162.307C489.565 164.249 491.04 166.569 491.986 169.114C492.933 171.66 493.329 174.375 493.15 177.083C492.912 187.676 489.552 197.967 483.485 206.682C484.494 206.876 485.522 206.962 486.549 206.939ZM449.445 219.655C449.445 223.121 451.802 224.83 456.257 224.83C460.713 224.83 466.512 220.147 473.49 211.084C468.194 208.095 463.849 203.689 460.949 198.369C453.295 206.643 449.46 213.738 449.445 219.655ZM478.181 204.34C483.571 195.348 486.274 187.691 486.29 181.368C486.29 175.046 484.711 170.386 481.575 167.318C479.244 164.671 475.959 163.04 472.429 162.775C466.315 162.775 463.267 165.897 463.282 172.142C463.322 178.549 464.745 184.874 467.455 190.688C469.69 196.137 473.403 200.863 478.181 204.34Z" fill="#F5C568"/>
</svg>
